<?xml version="1.0" encoding="UTF-8"?>
<svg width="17px" height="18px" viewBox="0 0 17 18" version="1.1" xmlns="http://www.w3.org/2000/svg" xmlns:xlink="http://www.w3.org/1999/xlink">
    <!-- Generator: Sketch 48.1 (47250) - http://www.bohemiancoding.com/sketch -->
    <title>Page 1</title>
    <desc>Created with Sketch.</desc>
    <defs></defs>
    <g id="Button/CTA" stroke="none" stroke-width="1" fill="none" fill-rule="evenodd" transform="translate(-18.000000, -11.000000)">
        <g id="CTA" fill="#009FDB">
            <path d="M22.937082,28.4853429 C25.4858478,29.4349677 28.6835136,28.0595215 30.3578359,25.1601155 L33.0212222,20.546948 C34.6259094,17.7670924 34.3177897,14.4745257 32.4419573,12.6812693 C32.1917641,12.4415522 32.1603359,12.4206001 32.1603359,12.4206001 C31.8565299,12.2153924 31.5009598,12.2344958 31.3690846,12.4631206 C31.2372094,12.6911292 31.1293675,12.8778497 31.1293675,12.8778497 L29.4334769,15.8154625 C29.4334769,15.8154625 29.3200889,16.0120428 29.181435,16.2517599 C29.0433974,16.491477 29.1358333,16.8063753 29.387259,16.9518078 C29.6386846,17.096624 29.8445085,17.2155582 29.8445085,17.2155582 C30.6899889,17.7036198 30.9820863,18.7949796 30.4940248,19.6398437 L28.3088401,23.4247856 C27.8207786,24.2702659 26.730035,24.5623634 25.8845547,24.0743018 C25.8845547,24.0743018 25.6787307,23.9559839 25.4273051,23.8105514 C25.1758795,23.6651189 24.8597487,23.7366027 24.7254085,23.9695412 C24.5910683,24.2024796 24.4813777,24.3928976 24.4813777,24.3928976 L22.6622393,27.543113 C22.6622393,27.543113 22.579047,27.6879292 22.4767512,27.8647899 C22.3750718,28.0416506 22.4829136,28.2838326 22.7164683,28.403383 L22.937082,28.4853429 Z M26.8958034,16.2357377 C25.4981726,16.8242463 24.407429,17.9827762 23.9039615,19.4130676 C23.6186427,20.2228061 23.5286718,21.0559617 23.6377461,21.8891172 C23.6870453,22.2687206 24.0352205,22.5361685 24.4148239,22.4862531 C24.7944273,22.436954 25.0618752,22.0887788 25.012576,21.7091753 C24.9318487,21.0941685 24.9990188,20.4766967 25.2116213,19.8740146 C25.5856786,18.8110018 26.3960333,17.9507317 27.4337803,17.5138181 C27.7862692,17.3653044 27.9520376,16.9585864 27.8035239,16.6060975 C27.7425162,16.4612813 27.6383718,16.3478933 27.5114265,16.2745608 C27.3302521,16.1698001 27.103476,16.1482317 26.8958034,16.2357377 L26.8958034,16.2357377 Z M25.8580564,13.6284292 C23.717241,14.5349172 22.0490812,16.308454 21.2818632,18.4936386 C20.8449495,19.7347446 20.7118418,21.0202198 20.8880863,22.3149386 C20.9398504,22.694542 21.2892581,22.9601412 21.6682453,22.9089933 C22.0478487,22.8572292 22.3134478,22.5078215 22.2616837,22.1288343 C22.1162512,21.0541129 22.2265581,19.9861702 22.5901393,18.9533531 C23.2285632,17.1354471 24.6169504,15.659554 26.3984983,14.905277 C26.7509871,14.7561471 26.9161393,14.3494292 26.7663931,13.9969403 C26.7053854,13.852124 26.601241,13.7393522 26.4755282,13.666636 C26.2937376,13.5618753 26.0663453,13.5403069 25.8580564,13.6284292 L25.8580564,13.6284292 Z M25.5567153,11.0932206 C25.6904393,11.1708668 25.7995136,11.2928821 25.8586726,11.4494069 C25.993629,11.807442 25.8124547,12.2073813 25.4538034,12.3423377 C22.8557384,13.3209257 20.8375547,15.3822463 19.9175094,17.9981822 C19.404182,19.462983 19.2593658,21.0411719 19.4990829,22.563283 C19.5588581,22.9410377 19.3006538,23.2959916 18.9222829,23.3557668 C18.5439119,23.415542 18.1889581,23.1567215 18.1297991,22.7789668 C17.8537239,21.0313121 18.0201085,19.2195685 18.6092333,17.5390839 C19.6660837,14.5349172 21.9825273,12.167942 24.9651256,11.0445377 C25.1678683,10.9687403 25.3829359,10.9927736 25.5567153,11.0932206 L25.5567153,11.0932206 Z" id="Page-1"></path>
        </g>
    </g>
</svg>