<?xml version="1.0" encoding="UTF-8"?>
<svg width="120px" height="103px" viewBox="0 0 120 103" version="1.1" xmlns="http://www.w3.org/2000/svg" xmlns:xlink="http://www.w3.org/1999/xlink">
    <!-- Generator: Sketch 48.1 (47250) - http://www.bohemiancoding.com/sketch -->
    <title>TV</title>
    <desc>Created with Sketch.</desc>
    <defs></defs>
    <g id="Home" stroke="none" stroke-width="1" fill="none" fill-rule="evenodd" transform="translate(-128.000000, -1140.000000)">
        <g id="ValueBuild" transform="translate(29.000000, 891.000000)" fill="#009FDB">
            <g id="Equipment" transform="translate(6.000000, 248.745297)">
                <g id="Enjoy-Genie">
                    <path d="M209.977951,74.0721392 C209.977951,75.2748921 208.990748,76.249122 207.781928,76.249122 L127.060973,76.249122 C127.032767,74.8459102 126.956208,73.4867994 126.831297,72.2158905 C126.682209,70.7485319 126.259122,68.7760171 125.8038,66.6912453 C125.126861,63.5640877 124.361275,60.0239849 124.39754,57.5663597 C124.470069,52.9999077 125.715153,48.8504101 126.819209,45.1860228 C127.717765,42.1991864 128.495439,39.6172767 128.535733,37.2558718 C128.55185,35.9969904 127.911176,34.6659438 126.67415,33.3990441 C124.736009,31.4145017 121.089403,29.4099135 116.507976,28.3955919 C116.528123,28.3033808 116.564388,28.2191881 116.564388,28.1229679 L116.564388,12.5272715 C116.564388,12.334831 116.721534,12.1744639 116.910916,12.1744639 L201.556506,12.1744639 C201.741858,12.1744639 201.894976,12.334831 201.894976,12.5272715 L201.894976,66.8516124 C201.894976,67.0440528 201.741858,67.2004107 201.552477,67.2004107 L146.994411,67.2004107 C146.160325,67.2004107 145.483386,67.8739524 145.483386,68.7038519 C145.483386,69.5337514 146.160325,70.2072931 146.994411,70.2072931 L201.552477,70.2072931 C203.406,70.2072931 204.917025,68.6998427 204.917025,66.8516124 L204.917025,12.5272715 C204.917025,10.6750319 203.41003,9.1675816 201.556506,9.1675816 L116.910916,9.1675816 C115.053363,9.1675816 113.542338,10.6750319 113.542338,12.5272715 L113.542338,27.8944448 C112.647812,27.7982246 111.729109,27.7340777 110.786229,27.718041 L110.786229,27.7220502 L110.766082,27.718041 L110.745935,27.718041 C109.972291,27.7300686 109.222822,27.786197 108.481413,27.854353 L108.481413,6.04844232 C108.481413,4.84969856 109.468616,3.87546868 110.681465,3.87546868 L207.781928,3.87546868 C208.990748,3.87546868 209.977951,4.84969856 209.977951,6.04844232 L209.977951,74.0721392 Z M207.781928,0.868586343 L110.681465,0.868586343 C107.804474,0.868586343 105.459363,3.18989951 105.459363,6.04844232 L105.459363,28.1229679 C105.459363,28.1790963 105.487569,28.2272064 105.491599,28.2833349 C100.680496,29.2575648 96.8606254,31.3463457 94.858014,33.3990441 C93.6209884,34.6659438 92.9803139,36.0009996 93.0004609,37.2558718 C93.0407549,39.6172767 93.8143996,42.1991864 94.716985,45.190032 C95.817011,48.8504101 97.0661248,53.0039169 97.1346245,57.5663597 C97.1708891,60.0199757 96.4053033,63.5560693 95.7323936,66.6792178 C95.2770715,68.7720079 94.8499552,70.7485319 94.7048968,72.2198996 C94.3704567,75.6196813 94.3664273,79.4324081 94.7008674,82.9564742 C94.9265137,85.3218883 95.3052773,87.542972 95.796864,89.383184 C95.978187,90.0567257 96.5866262,90.5017443 97.2555065,90.5017443 C97.3844473,90.5017443 97.5133881,90.4857076 97.6463582,90.449625 C98.4522381,90.2371386 98.9317366,89.4112483 98.7181784,88.609413 C98.2668857,86.929568 97.9203574,84.8768697 97.7108286,82.6758318 C97.3925061,79.3361878 97.3965355,75.7319382 97.714858,72.5125695 C97.8397694,71.2135964 98.2507681,69.3172559 98.6859433,67.3126677 C99.3951175,64.0331613 100.196968,60.3206639 100.156674,57.5222588 C100.080115,52.5388524 98.7665312,48.1768685 97.6100937,44.3280591 C96.776008,41.5496998 96.0547455,39.1522123 96.0225103,37.2077617 C96.0184809,37.0473946 96.0829513,36.4580457 97.0258308,35.4918342 C99.2057358,33.2587229 104.435896,30.8171344 110.766082,30.7289326 C117.096268,30.8171344 122.326429,33.2587229 124.506334,35.4918342 C125.449213,36.4580457 125.517713,37.0514038 125.513683,37.2077617 C125.481448,39.1522123 124.760186,41.5496998 123.9261,44.3280591 C122.765633,48.1768685 121.452049,52.5388524 121.37549,57.5222588 C121.335196,60.3206639 122.141076,64.0411797 122.850251,67.320686 C123.285426,69.3252742 123.692395,71.2176055 123.821336,72.5125695 C124.558716,79.9495918 123.519131,88.6815781 121.500402,91.9691028 C117.164768,99.0372809 112.19249,99.5985656 110.766082,99.6025748 C109.956173,99.5985656 108.30009,99.4341894 106.277331,98.3236475 C105.54801,97.9307482 104.629307,98.1913447 104.226367,98.9170056 C103.823427,99.6426666 104.089368,100.556759 104.818689,100.961686 C107.433769,102.388952 109.666056,102.605448 110.762053,102.609457 L110.766082,102.609457 L110.770112,102.609457 C112.587371,102.605448 118.921586,101.939925 124.083247,93.5326817 C125.964976,90.4656617 126.887709,84.7886678 127.048885,79.2560043 L157.720672,79.2560043 L157.720672,87.9639356 L136.010269,87.9639356 C135.176183,87.9639356 134.499244,88.6374772 134.499244,89.4673767 C134.499244,90.2972763 135.176183,90.9708179 136.010269,90.9708179 L182.445065,90.9708179 C183.279151,90.9708179 183.95609,90.2972763 183.95609,89.4673767 C183.95609,88.6374772 183.279151,87.9639356 182.445065,87.9639356 L160.742721,87.9639356 L160.742721,79.2560043 L207.781928,79.2560043 C210.658919,79.2560043 213,76.930682 213,74.0721392 L213,6.04844232 C213,3.18989951 210.658919,0.868586343 207.781928,0.868586343 Z M115.403921,59.7834343 C114.461041,58.777131 115.827008,58.7570851 115.806861,56.2834232 C115.782684,54.210679 114.428806,53.9941835 115.182304,53.1161739 C116.342771,51.7650814 118.047207,53.8939541 118.075412,56.3315334 C118.111677,58.8613237 116.387094,60.821811 115.403921,59.7834343 Z M110.862788,63.7404914 C108.328296,63.776574 106.35389,62.0526282 107.401534,61.0783983 C108.408884,60.1442602 108.429031,61.4953526 110.91517,61.4793159 C112.99434,61.4552609 113.215957,60.1081776 114.106454,60.8578936 C115.460332,62.0125364 113.316692,63.708418 110.862788,63.7404914 Z M106.091979,53.1161739 C107.038888,54.1224771 105.676951,54.142523 105.693069,56.6161849 C105.725304,58.6889291 107.071123,58.9054246 106.317625,59.7834343 C105.157158,61.1345268 103.452723,59.0016449 103.420487,56.5680748 C103.388252,54.0382844 105.120894,52.073788 106.091979,53.1161739 Z M113.284457,56.4157261 C113.304604,57.8149287 112.18846,58.9575439 110.7822,58.9775898 C109.379969,58.9936265 108.223531,57.8830847 108.207414,56.4798729 C108.187267,55.0846795 109.311469,53.938055 110.7137,53.9180091 C112.11996,53.9019724 113.276398,55.0205327 113.284457,56.4157261 Z M110.629083,49.1551075 C113.171634,49.1230341 115.14201,50.84698 114.106454,51.8172007 C113.087016,52.755348 113.070899,51.4002463 110.584759,51.416283 C108.50156,51.4443473 108.279943,52.7914306 107.401534,52.0377054 C106.039597,50.8830626 108.179208,49.1871809 110.629083,49.1551075 Z M110.790259,81.384877 L110.463877,81.384877 C109.670086,81.384877 109.017323,82.0343636 109.017323,82.8281805 L109.017323,83.156933 C109.017323,83.9507499 109.670086,84.6002365 110.463877,84.6002365 L110.790259,84.6002365 C111.592109,84.6002365 112.244872,83.9507499 112.244872,83.156933 L112.244872,82.8281805 C112.244872,82.0343636 111.592109,81.384877 110.790259,81.384877 Z M110.790259,83.5979424 C111.036052,83.5979424 111.237522,83.4014928 111.237522,83.156933 L111.237522,82.8281805 C111.237522,82.5876299 111.036052,82.3871711 110.790259,82.3871711 L110.463877,82.3871711 C110.222113,82.3871711 110.024673,82.5876299 110.024673,82.8281805 L110.024673,83.156933 C110.024673,83.4014928 110.222113,83.5979424 110.463877,83.5979424 L110.790259,83.5979424 Z M110.741906,76.0246081 L110.407466,76.0246081 C109.613674,76.0246081 108.960911,76.6740947 108.960911,77.4679116 L108.960911,77.7926549 C108.960911,78.5864718 109.613674,79.2399676 110.407466,79.2399676 L110.741906,79.2399676 C111.539727,79.2399676 112.18846,78.5864718 112.18846,77.7926549 L112.18846,77.4679116 C112.18846,76.6740947 111.539727,76.0246081 110.741906,76.0246081 Z M110.741906,78.2376735 C110.987699,78.2376735 111.18111,78.0372147 111.18111,77.7926549 L111.18111,77.4679116 C111.18111,77.227361 110.987699,77.0269022 110.741906,77.0269022 L110.407466,77.0269022 C110.169731,77.0269022 109.968261,77.227361 109.968261,77.4679116 L109.968261,77.7926549 C109.968261,78.0372147 110.169731,78.2376735 110.407466,78.2376735 L110.741906,78.2376735 Z M110.790259,70.66033 L110.463877,70.66033 C109.670086,70.66033 109.017323,71.3098166 109.017323,72.1036335 L109.017323,72.432386 C109.017323,73.2302121 109.670086,73.8796987 110.463877,73.8796987 L110.790259,73.8796987 C111.592109,73.8796987 112.244872,73.2302121 112.244872,72.432386 L112.244872,72.1036335 C112.244872,71.3098166 111.592109,70.66033 110.790259,70.66033 Z M110.790259,72.8774046 C111.036052,72.8774046 111.237522,72.6769458 111.237522,72.432386 L111.237522,72.1036335 C111.237522,71.8630829 111.036052,71.6626241 110.790259,71.6626241 L110.463877,71.6626241 C110.222113,71.6626241 110.024673,71.8630829 110.024673,72.1036335 L110.024673,72.432386 C110.024673,72.6769458 110.222113,72.8774046 110.463877,72.8774046 L110.790259,72.8774046 Z M105.201482,81.384877 L104.871071,81.384877 C104.077279,81.384877 103.424517,82.0343636 103.424517,82.8281805 L103.424517,83.156933 C103.424517,83.9507499 104.077279,84.6002365 104.871071,84.6002365 L105.201482,84.6002365 C106.003332,84.6002365 106.656095,83.9507499 106.656095,83.156933 L106.656095,82.8281805 C106.656095,82.0343636 106.003332,81.384877 105.201482,81.384877 Z M105.201482,83.5979424 C105.451305,83.5979424 105.648745,83.4014928 105.648745,83.156933 L105.648745,82.8281805 C105.648745,82.5876299 105.451305,82.3871711 105.201482,82.3871711 L104.871071,82.3871711 C104.633337,82.3871711 104.431867,82.5876299 104.431867,82.8281805 L104.431867,83.156933 C104.431867,83.4014928 104.633337,83.5979424 104.871071,83.5979424 L105.201482,83.5979424 Z M105.1491,76.0246081 L104.818689,76.0246081 C104.020868,76.0246081 103.372135,76.6740947 103.372135,77.4679116 L103.372135,77.7926549 C103.372135,78.5864718 104.020868,79.2399676 104.818689,79.2399676 L105.1491,79.2399676 C105.95095,79.2399676 106.599683,78.5864718 106.599683,77.7926549 L106.599683,77.4679116 C106.599683,76.6740947 105.95095,76.0246081 105.1491,76.0246081 Z M105.1491,78.2376735 C105.390864,78.2376735 105.592334,78.0372147 105.592334,77.7926549 L105.592334,77.4679116 C105.592334,77.227361 105.390864,77.0269022 105.1491,77.0269022 L104.818689,77.0269022 C104.576925,77.0269022 104.379484,77.227361 104.379484,77.4679116 L104.379484,77.7926549 C104.379484,78.0372147 104.576925,78.2376735 104.818689,78.2376735 L105.1491,78.2376735 Z M105.201482,70.66033 L104.871071,70.66033 C104.077279,70.66033 103.424517,71.3098166 103.424517,72.1036335 L103.424517,72.432386 C103.424517,73.2302121 104.077279,73.8796987 104.871071,73.8796987 L105.201482,73.8796987 C106.003332,73.8796987 106.656095,73.2302121 106.656095,72.432386 L106.656095,72.1036335 C106.656095,71.3098166 106.003332,70.66033 105.201482,70.66033 Z M105.201482,72.8774046 C105.451305,72.8774046 105.648745,72.6769458 105.648745,72.432386 L105.648745,72.1036335 C105.648745,71.8630829 105.451305,71.6626241 105.201482,71.6626241 L104.871071,71.6626241 C104.633337,71.6626241 104.431867,71.8630829 104.431867,72.1036335 L104.431867,72.432386 C104.431867,72.6769458 104.633337,72.8774046 104.871071,72.8774046 L105.201482,72.8774046 Z M116.709446,81.384877 L116.387094,81.384877 C115.585244,81.384877 114.93651,82.0343636 114.93651,82.8281805 L114.93651,83.156933 C114.93651,83.9507499 115.585244,84.6002365 116.387094,84.6002365 L116.709446,84.6002365 C117.511297,84.6002365 118.164059,83.9507499 118.164059,83.156933 L118.164059,82.8281805 C118.164059,82.0343636 117.511297,81.384877 116.709446,81.384877 Z M116.709446,83.5979424 C116.959269,83.5979424 117.156709,83.4014928 117.156709,83.156933 L117.156709,82.8281805 C117.156709,82.5876299 116.959269,82.3871711 116.709446,82.3871711 L116.387094,82.3871711 C116.137271,82.3871711 115.94386,82.5876299 115.94386,82.8281805 L115.94386,83.156933 C115.94386,83.4014928 116.137271,83.5979424 116.387094,83.5979424 L116.709446,83.5979424 Z M116.657064,76.0246081 L116.334712,76.0246081 C115.532862,76.0246081 114.884128,76.6740947 114.884128,77.4679116 L114.884128,77.7926549 C114.884128,78.5864718 115.532862,79.2399676 116.334712,79.2399676 L116.657064,79.2399676 C117.458914,79.2399676 118.111677,78.5864718 118.111677,77.7926549 L118.111677,77.4679116 C118.111677,76.6740947 117.458914,76.0246081 116.657064,76.0246081 Z M116.657064,78.2376735 C116.902857,78.2376735 117.104327,78.0372147 117.104327,77.7926549 L117.104327,77.4679116 C117.104327,77.227361 116.902857,77.0269022 116.657064,77.0269022 L116.334712,77.0269022 C116.088919,77.0269022 115.891478,77.227361 115.891478,77.4679116 L115.891478,77.7926549 C115.891478,78.0372147 116.088919,78.2376735 116.334712,78.2376735 L116.657064,78.2376735 Z M116.709446,70.66033 L116.387094,70.66033 C115.585244,70.66033 114.93651,71.3098166 114.93651,72.1036335 L114.93651,72.432386 C114.93651,73.2302121 115.585244,73.8796987 116.387094,73.8796987 L116.709446,73.8796987 C117.511297,73.8796987 118.164059,73.2302121 118.164059,72.432386 L118.164059,72.1036335 C118.164059,71.3098166 117.511297,70.66033 116.709446,70.66033 Z M116.709446,72.8774046 C116.959269,72.8774046 117.156709,72.6769458 117.156709,72.432386 L117.156709,72.1036335 C117.156709,71.8630829 116.959269,71.6626241 116.709446,71.6626241 L116.387094,71.6626241 C116.137271,71.6626241 115.94386,71.8630829 115.94386,72.1036335 L115.94386,72.432386 C115.94386,72.6769458 116.137271,72.8774046 116.387094,72.8774046 L116.709446,72.8774046 Z M110.762053,36.2535777 L110.733847,36.2535777 C110.193908,36.2615961 109.694262,36.4780916 109.319528,36.8589633 C108.940764,37.2478535 108.735265,37.7570189 108.743324,38.2982577 C108.747353,38.8435057 108.964941,39.3446527 109.347734,39.7175062 C109.730527,40.0903596 110.250319,40.258745 110.7822,40.2908184 C111.330198,40.2828 111.841932,40.0622953 112.220695,39.6734052 C112.599459,39.2885243 112.796899,38.783368 112.788841,38.2501476 C112.772723,37.1436149 111.866108,36.2535777 110.762053,36.2535777 Z M110.758023,43.2977007 C109.428322,43.2977007 108.179208,42.7885353 107.232299,41.8664247 C106.269273,40.9282774 105.733363,39.6734052 105.721274,38.3343403 C105.701127,36.9992845 106.208832,35.7283756 107.151711,34.7621641 C108.090561,33.8039709 109.347734,33.2627321 110.697582,33.2466954 C113.534279,33.1785394 115.770596,35.4357057 115.81089,38.2060466 C115.831037,39.5411024 115.327362,40.8080021 114.388512,41.7661953 C113.445633,42.736416 112.180401,43.2776548 110.826523,43.2977007 L110.822494,43.2977007 L110.758023,43.2977007 Z" id="TV"></path>
                </g>
            </g>
        </g>
    </g>
</svg>