<?xml version="1.0" encoding="UTF-8"?>
<svg width="120px" height="109px" viewBox="0 0 120 109" version="1.1" xmlns="http://www.w3.org/2000/svg" xmlns:xlink="http://www.w3.org/1999/xlink">
    <!-- Generator: Sketch 48.1 (47250) - http://www.bohemiancoding.com/sketch -->
    <title>DVR-4</title>
    <desc>Created with Sketch.</desc>
    <defs></defs>
    <g id="Home" stroke="none" stroke-width="1" fill="none" fill-rule="evenodd" transform="translate(-128.000000, -1417.000000)">
        <g id="ValueBuild" transform="translate(29.000000, 891.000000)">
            <g id="Equipment" transform="translate(6.000000, 248.745297)">
                <g transform="translate(0.000000, 277.599751)" id="DVR-4">
                    <g transform="translate(93.000000, 0.497491)">
                        <path d="M75.308631,51.9341434 L80.0975202,51.9341434 C81.6142008,51.9341434 82.7964952,51.5420232 83.648384,50.7577828 C84.5002729,49.9735424 84.9222365,48.8882804 84.9222365,47.5059576 C84.9222365,46.1434389 84.5082345,45.0819418 83.6802303,44.3175054 C82.8522262,43.553069 81.6579895,43.1728312 80.0975202,43.1728312 L75.308631,43.1728312 L75.308631,51.9341434 Z M80.0378084,54.1918052 L75.308631,54.1918052 L75.308631,62.584762 L72.8485034,62.584762 L72.8485034,40.9112086 L80.0696547,40.9112086 C82.3904547,40.9112086 84.2017137,41.4815653 85.4994509,42.6302002 C86.7971882,43.7748744 87.442076,45.3908849 87.442076,47.4742711 C87.442076,49.042752 87.0161316,50.397349 86.1682235,51.5301408 C85.3203154,52.6668933 84.1340403,53.4392513 82.6213405,53.8511755 L88.1904643,62.584762 L85.2327381,62.584762 L80.0378084,54.1918052 Z M50.9541637,40.9112086 L53.6929465,40.9112086 L60.1975558,59.8280381 L66.6703188,40.9112086 L69.345409,40.9112086 L61.4435428,62.584762 L58.8600107,62.584762 L50.9541637,40.9112086 Z M46.7265657,51.7479853 C46.7265657,49.042752 46.0060429,46.9395617 44.5490741,45.430493 C43.1000669,43.9253852 41.0738453,43.1728312 38.4823516,43.1728312 L34.1592147,43.1728312 L34.1592147,60.3231394 L38.4823516,60.3231394 C41.0738453,60.3231394 43.1000669,59.5705855 44.5490741,58.0615168 C46.0060429,56.5564089 46.7265657,54.4532187 46.7265657,51.7479853 Z M49.2503859,51.7479853 C49.2503859,53.9977255 48.8045376,55.9385225 47.9128408,57.5664155 C47.0211441,59.1982693 45.7711763,60.4419637 44.1629376,61.2974987 C42.550718,62.1569945 40.6717856,62.584762 38.5141979,62.584762 L31.6990871,62.584762 L31.6990871,40.9112086 L38.5141979,40.9112086 C40.7314974,40.9112086 42.6542185,41.3587802 44.2704189,42.2578841 C45.8866192,43.156988 47.1246446,44.4204864 47.9765334,46.0523403 C48.8244415,47.6802332 49.2503859,49.5814221 49.2503859,51.7479853 Z M100.085062,39.0773535 L100.07312,101.34129 C100.07312,103.39299 98.3972074,105.064451 96.3351587,105.064451 L76.8770619,105.064451 L76.8770619,77.6675273 C76.8770619,75.1207263 74.7951092,73.0571442 72.2394426,73.0571442 L47.7536093,73.0571442 C45.1979427,73.0571442 43.11599,75.1207263 43.11599,77.6675273 L43.11599,92.1046805 C43.11599,92.9245682 43.7847626,93.5899843 44.6087859,93.5899843 C45.4328093,93.5899843 46.1015818,92.9245682 46.1015818,92.1046805 L46.1015818,77.6675273 C46.1015818,76.7605018 46.8459894,76.0277519 47.7536093,76.0277519 L72.2394426,76.0277519 C73.1470625,76.0277519 73.8914701,76.7605018 73.8914701,77.6675273 L73.8914701,105.064451 L23.6578932,105.064451 C21.5998253,105.064451 19.9199323,103.39299 19.9199323,101.34129 L19.9557594,38.9664508 C19.9557594,38.899117 19.9278939,38.8436657 19.9159515,38.7802927 L56.3242481,4.47967634 C58.3027002,2.51511448 61.7261788,2.51115367 63.7444388,4.53116687 L100.132831,38.8278224 C100.116908,38.9109995 100.085062,38.9902157 100.085062,39.0773535 Z M65.8303723,2.40421179 C64.2778646,0.855535004 62.2078543,0 59.9945356,0 C57.8090824,0 55.758976,0.843652574 54.2422954,2.34876045 L0.465816268,53.0154446 C-0.131302088,53.5818404 -0.159167611,54.5205525 0.410085221,55.1186348 C0.975357265,55.7127563 1.91880427,55.7365212 2.51990341,55.1740862 L16.9701676,41.5607815 L16.9343405,101.34129 C16.9343405,105.032765 19.9517786,108.035059 23.6578932,108.035059 L96.3351587,108.035059 C100.045254,108.035059 103.058711,105.032765 103.058711,101.34129 L103.070654,41.592468 L117.48111,55.1740862 C117.767727,55.4473821 118.13794,55.5820496 118.508154,55.5820496 C118.902252,55.5820496 119.300331,55.4236172 119.590928,55.1186348 C120.1562,54.5205525 120.132316,53.5818404 119.531216,53.0154446 L65.8303723,2.40421179 Z" id="Page-1" fill="#009FDB"></path>
                        <ellipse id="Oval" stroke="#009FDB" stroke-width="3" fill="#FFFFFF" cx="100" cy="30.432246" rx="13" ry="13.432246"></ellipse>
                        <text id="4" font-family=".AppleSystemUIFont" font-size="18" font-weight="normal" letter-spacing="0.15" fill="#009FDB">
                            <tspan x="93.5176332" y="35">4</tspan>
                        </text>
                    </g>
                </g>
            </g>
        </g>
    </g>
</svg>