<?xml version="1.0" encoding="UTF-8"?>
<svg width="72px" height="25px" viewBox="0 0 72 25" version="1.1" xmlns="http://www.w3.org/2000/svg" xmlns:xlink="http://www.w3.org/1999/xlink">
    <!-- Generator: Sketch 48.1 (47250) - http://www.bohemiancoding.com/sketch -->
    <title>Logo - Cinemax</title>
    <desc>Created with Sketch.</desc>
    <defs></defs>
    <g id="Home" stroke="none" stroke-width="1" fill="none" fill-rule="evenodd" transform="translate(-272.000000, -892.000000)">
        <g id="ValueBuild" transform="translate(29.000000, 891.000000)">
            <g id="Premium">
                <g id="Logos" transform="translate(4.000000, 0.497491)">
                    <g id="Assets/Logos/Cinemax" transform="translate(238.000000, 0.000000)">
                        <g id="Logo---Cinemax" transform="translate(1.351598, 0.000000)">
                            <g id="Group-3" transform="translate(0.000000, 0.432474)" fill="#333333">
                                <path d="M7.38911765,18.2169863 C7.30861805,18.9765351 8.10914182,19.6021595 9.16756245,19.4764545 L9.17253156,19.4764545 L14.4541996,18.8450282 L14.8194292,16.463884 L11.2287497,16.8936986 C10.7537027,16.9502659 10.3253653,16.8057051 10.4098402,16.207639 L10.7248818,14.0493795 C10.818798,13.3628364 11.4140975,13.1800806 12.0387147,13.1065915 L15.3655345,12.7111039 L15.714863,10.322224 L9.86621945,11.0223046 C9.05029143,11.1194843 8.41871743,11.6252055 8.22840048,12.3707333 L7.38911765,18.2169863 Z M19.4133723,9.87790492 L16.581476,10.2163417 L15.3451612,18.7338276 L18.1780513,18.3963578 L19.4133723,9.87790492 Z M19.0491364,18.2914424 L21.857181,17.95639 L22.4788168,13.7201289 L25.0061066,17.5802417 L27.5234582,17.2795165 L28.7587792,8.76203062 L25.9507346,9.09659952 L25.3574228,13.1621918 L22.9354781,9.45775987 L20.2839605,9.77395649 L19.0491364,18.2914424 Z M31.9598805,11.5241579 L32.0846052,10.6596938 L36.5279842,10.1293151 L36.8718466,7.79216761 L29.6447717,8.65614827 L28.4084569,17.1736342 L35.6310596,16.3106205 L35.9654808,13.97444 L31.5250833,14.5048187 L31.6667029,13.5794359 L35.8064692,13.0853183 L36.0996468,11.0300403 L31.9598805,11.5241579 Z M61.8147959,8.90175665 L64.9632246,4.43680902 L61.6821206,4.82891217 L60.2147421,7.0364867 L58.9943285,5.14897663 L55.9308716,5.51593876 L58.4154271,9.18846092 L55.5800524,13.2129573 L53.4572482,5.8239162 L50.6482098,6.15945205 L46.136754,14.5183562 L47.293563,6.54768735 L44.1814088,6.91948429 L41.933383,10.1293151 L40.5499825,7.35268332 L37.7538638,7.68725222 L36.5190398,16.2047381 L39.2908098,15.8730701 L39.9000228,11.6517969 L41.408148,14.4487349 L41.4573422,14.4434166 L43.8464907,11.1799194 L43.2362839,15.4016761 L45.8276753,15.0927317 L46.0567513,15.0642063 L48.914487,14.7238356 L49.5137618,13.5286704 L52.4808179,13.1742788 L52.7640572,14.2640451 L55.0304687,13.9928122 L55.7788168,13.9038517 L58.3110757,13.6011926 L60.0343634,11.0271394 L61.3621099,13.2371313 L64.4255667,12.8706527 L61.8147959,8.90175665 Z M71.5229479,0.0511522965 L69.2326847,15.9025624 L4.96911104e-05,24.1739565 L2.2893191,8.32254633 L71.5229479,0.0511522965 Z M51.5933347,9.26243352 L52.0743446,11.2374537 L50.5254727,11.4221434 L51.5933347,9.26243352 Z" id="Fill-1"></path>
                            </g>
                            <path d="M66.6667849,5.64788074 C66.7562288,5.63772764 66.8064169,5.60823529 66.8317593,5.57632554 C66.8531265,5.55070105 66.8610771,5.52024174 66.8571018,5.49123288 C66.8471636,5.41629331 66.7920064,5.40033844 66.7035563,5.41049154 L66.5500107,5.42983078 L66.5137362,5.66576954 L66.6667849,5.64788074 Z M66.4307521,6.23482675 L66.095834,6.2744722 L66.2508703,5.18712329 L66.6861644,5.13345689 C67.0101504,5.0947784 67.1582299,5.22290089 67.1810878,5.41194198 C67.2054365,5.60001612 67.1040666,5.74070911 66.9162342,5.82145044 L67.113011,6.15215149 L66.7656702,6.19421434 L66.5982111,5.90557615 L66.4739833,5.92056406 L66.4307521,6.23482675 Z M67.3038249,6.23966156 C67.4847005,6.01580983 67.5582434,5.74989525 67.5244534,5.475278 C67.4697932,5.04691378 67.1318936,4.73168413 66.6195783,4.7935697 C66.3423019,4.82596293 66.1162074,4.96955681 65.9666371,5.1561805 C65.7857615,5.38148268 65.7107279,5.64594682 65.7460086,5.9195971 C65.8001719,6.35086221 66.1385684,6.66415794 66.6513806,6.6037228 C66.9266694,6.57036261 67.1542546,6.42628525 67.3038249,6.23966156 L67.3038249,6.23966156 Z M67.6397368,5.45062047 C67.6784958,5.75376309 67.5974993,6.05448832 67.4066855,6.292361 C67.2198469,6.52346495 66.9639377,6.67624496 66.6518775,6.71298952 C66.0993124,6.77922643 65.6913484,6.43208703 65.6297314,5.94667204 C65.5914692,5.64207897 65.6729627,5.34135375 65.8647703,5.10444803 C66.0501182,4.87237712 66.3055305,4.7195971 66.6175907,4.68285254 C67.1706527,4.61709911 67.5786167,4.96375504 67.6397368,5.45062047 L67.6397368,5.45062047 Z" id="Fill-4" fill="#FFFFFF"></path>
                        </g>
                    </g>
                </g>
            </g>
        </g>
    </g>
</svg>