<?xml version="1.0" encoding="UTF-8"?>
<svg width="54px" height="23px" viewBox="0 0 54 23" version="1.1" xmlns="http://www.w3.org/2000/svg" xmlns:xlink="http://www.w3.org/1999/xlink">
    <!-- Generator: Sketch 48.1 (47250) - http://www.bohemiancoding.com/sketch -->
    <title>Logo - HBO</title>
    <desc>Created with Sketch.</desc>
    <defs>
        <polygon id="path-1" points="0.000109607835 21.0973555 52.9944021 21.0973555 52.9944021 0.0941965411 0.000109607835 0.0941965411"></polygon>
        <polygon id="path-3" points="4.1365997 3.44256098 4.1365997 0.2536957 0.777886807 0.2536957 0.777886807 3.44256098 4.1365997 3.44256098"></polygon>
    </defs>
    <g id="Home" stroke="none" stroke-width="1" fill="none" fill-rule="evenodd" transform="translate(-33.000000, -895.000000)">
        <g id="ValueBuild" transform="translate(29.000000, 891.000000)">
            <g id="Premium">
                <g id="Logos" transform="translate(4.000000, 0.497491)">
                    <g id="Assets/Logos/HBO" transform="translate(0.000000, 2.984944)">
                        <g id="logo-hbo" transform="translate(0.000000, 0.143836)">
                            <g id="Group-3" transform="translate(0.000000, 1.856356)">
                                <mask id="mask-2" fill="white">
                                    <use xlink:href="#path-1"></use>
                                </mask>
                                <g id="Clip-2"></g>
                                <path d="M42.1454184,14.667198 C44.5052751,14.667198 46.4190279,12.8264537 46.4190279,10.5542686 C46.4190279,8.28208336 44.5052751,6.44028423 42.1454184,6.44028423 C39.7844656,6.44028423 37.8707128,8.28208336 37.8707128,10.5542686 C37.8707128,12.8264537 39.7844656,14.667198 42.1454184,14.667198 L42.1454184,14.667198 Z M36.7077737,10.5542686 C36.7077737,7.66393085 39.1421637,5.32106952 42.1454184,5.32106952 C45.147577,5.32106952 47.5830631,7.66393085 47.5830631,10.5542686 C47.5830631,13.4435514 45.147577,15.7874676 42.1454184,15.7874676 C39.1421637,15.7874676 36.7077737,13.4435514 36.7077737,10.5542686 L36.7077737,10.5542686 Z M29.1360644,10.5542686 C29.8090565,10.470934 30.9303447,9.73041682 31.3260289,9.25889092 C31.186827,9.84539741 31.1758662,11.5405699 31.3391819,12.1270764 C30.8886937,11.4582902 29.8200173,10.6365482 29.1360644,10.5542686 L29.1360644,10.5542686 Z M25.2263529,5.014103 C26.0823901,5.014103 26.7542861,5.82529632 26.7542861,6.75041535 C26.7542861,7.67553439 26.0823901,8.48778258 25.2263529,8.48778258 L22.289959,8.48778258 L22.289959,5.014103 L25.2263529,5.014103 Z M25.2164882,12.7336254 C26.0714293,12.7336254 26.7433253,13.5458736 26.7433253,14.4709926 C26.7433253,15.3940019 26.0714293,16.207305 25.2164882,16.207305 L22.2789982,16.207305 L22.2789982,12.7336254 L25.2164882,12.7336254 Z M42.141034,21.097672 C48.1256219,21.0955622 52.995498,16.3096271 52.9944019,10.5500491 C52.9944019,4.66810637 48.1256219,0.0984191634 42.141034,0.0941996923 C36.1641188,0.0899802212 33.1093484,4.32421947 32.3552465,6.03416013 C32.361823,3.46872171 29.7345232,0.439141455 26.6611195,0.435976852 L16.7569555,0.435976852 L16.7569555,20.9932401 L25.9903195,20.9964047 C29.7126016,20.9964047 32.361823,17.8929837 32.3662073,15.2315523 C33.2167641,16.9056274 36.1641188,21.0997817 42.141034,21.097672 L42.141034,21.097672 Z M15.5490771,21.0006241 L9.74643832,21.0006241 L9.74643832,13.0226591 L5.97812095,13.0226591 L5.97812095,21.0006241 L0.0209350965,21.0006241 L0.000109607835,0.438086587 L5.97812095,0.438086587 L5.97812095,8.08693283 L9.74643832,8.08693283 L9.74643832,0.438086587 L15.5490771,0.438086587 L15.5490771,21.0006241 Z" id="Fill-1" fill="#333333" mask="url(#mask-2)"></path>
                            </g>
                            <g id="Group-6" transform="translate(49.323526, 0.801489)">
                                <mask id="mask-4" fill="white">
                                    <use xlink:href="#path-3"></use>
                                </mask>
                                <g id="Clip-5"></g>
                                <path d="M2.11071808,1.73473006 L2.11071808,1.16510146 L2.50530629,1.16510146 C2.70698471,1.16510146 2.92181607,1.2062413 2.92181607,1.43514761 C2.92181607,1.7167973 2.7026004,1.73473006 2.45707884,1.73473006 L2.11071808,1.73473006 Z M2.11071808,1.97102044 L2.44502198,1.97102044 L2.94812195,2.76744561 L3.27365722,2.76744561 L2.72890628,1.95730716 C3.00950233,1.92460626 3.22542977,1.78008937 3.22542977,1.45097062 C3.22542977,1.08915098 3.00073371,0.927756208 2.54914943,0.927756208 L1.8213534,0.927756208 L1.8213534,2.76744561 L2.11071808,2.76744561 L2.11071808,1.97102044 Z M2.46146316,3.44256098 C3.3657278,3.44256098 4.13736696,2.76744561 4.13736696,1.84443631 C4.13736696,0.927756208 3.3657278,0.2536957 2.46146316,0.2536957 C1.54952597,0.2536957 0.777886807,0.927756208 0.777886807,1.84443631 C0.777886807,2.76744561 1.54952597,3.44256098 2.46146316,3.44256098 L2.46146316,3.44256098 Z M1.11109463,1.84443631 C1.11109463,1.08915098 1.70297694,0.519522379 2.46146316,0.519522379 C3.21118075,0.519522379 3.80306306,1.08915098 3.80306306,1.84443631 C3.80306306,2.61238005 3.21118075,3.17673431 2.46146316,3.17673431 C1.70297694,3.17673431 1.11109463,2.61238005 1.11109463,1.84443631 L1.11109463,1.84443631 Z" id="Fill-4" fill="#5A5A5A" mask="url(#mask-4)"></path>
                            </g>
                        </g>
                    </g>
                </g>
            </g>
        </g>
    </g>
</svg>