<?xml version="1.0" encoding="UTF-8"?>
<svg width="65px" height="23px" viewBox="0 0 65 23" version="1.1" xmlns="http://www.w3.org/2000/svg" xmlns:xlink="http://www.w3.org/1999/xlink">
    <!-- Generator: Sketch 48.1 (47250) - http://www.bohemiancoding.com/sketch -->
    <title>Logo - Showtime</title>
    <desc>Created with Sketch.</desc>
    <defs>
        <polygon id="path-1" points="0.791347524 22.1917808 18.8008027 22.1917808 18.8008027 0.566941601 0.791347524 0.566941601 0.791347524 22.1917808"></polygon>
    </defs>
    <g id="Home" stroke="none" stroke-width="1" fill="none" fill-rule="evenodd" transform="translate(-195.000000, -896.000000)">
        <g id="ValueBuild" transform="translate(29.000000, 891.000000)">
            <g id="Premium">
                <g id="Logos" transform="translate(4.000000, 0.497491)">
                    <g id="Assets/Logos/Showtime" transform="translate(161.000000, 3.979925)">
                        <g id="Logo---Showtime" transform="translate(1.060590, 0.000000)">
                            <g id="Group-3" transform="translate(0.000000, 0.601047)">
                                <mask id="mask-2" fill="white">
                                    <use xlink:href="#path-1"></use>
                                </mask>
                                <g id="Clip-2"></g>
                                <path d="M14.2608196,18.6672588 L11.7901916,18.6672588 L11.7901916,12.5119596 L9.12242655,12.5119596 L9.12242655,18.6672588 L6.64479958,18.6672588 L6.64479958,4.46568709 L9.1165941,4.46568709 L9.1165941,10.1864946 L11.7901916,10.1864946 L11.7901916,4.46568709 L14.2608196,4.46568709 L14.2608196,18.6672588 Z M15.2884982,11.5285133 C15.2884982,7.19761211 16.8889239,4.46451911 18.8008027,4.17602596 C16.8900904,1.82369719 13.6974044,0.566941601 10.7975077,0.566941601 C7.6059882,0.566941601 4.73875321,1.9545119 2.76271739,4.15850613 C4.64776691,4.53226244 5.29050348,6.11488681 5.29050348,8.5653266 L2.9820177,8.5653266 C2.9820177,7.11935689 2.6822295,6.37184427 1.82719157,6.37184427 C1.44224953,6.37184427 1.14479431,6.56689834 0.968654162,6.89860707 C0.942991359,6.95350252 0.918495047,7.00956597 0.893998736,7.06562942 C0.826342255,7.25133958 0.791347524,7.46508147 0.791347524,7.70335112 C0.791347524,10.7004095 5.7046078,10.550907 5.7046078,15.1551175 C5.7046078,16.9538198 4.32698188,18.6298832 2.77671528,18.6298832 C4.81457513,20.8584052 7.59432329,22.192248 10.7975077,22.192248 C13.9108723,22.192248 16.7162832,20.8724211 18.6876531,18.7595299 C16.8702601,18.3016784 15.2884982,15.6865523 15.2884982,11.5285133 L15.2884982,11.5285133 Z" id="Fill-1" fill="#333333" mask="url(#mask-2)"></path>
                            </g>
                            <path d="M2.13526185,17.008248 C2.82465806,17.008248 3.3145843,16.398558 3.3145843,15.5167267 C3.3145843,13.6853208 1.7129921,13.3314203 0.000583245522,11.7826676 C-0.0227465753,14.9175487 0.946607482,17.008248 2.13526185,17.008248" id="Fill-4" fill="#333333"></path>
                            <path d="M17.7445451,11.9011017 C17.7445451,9.51022927 18.4397738,7.11702091 19.708916,7.11702091 C21.214856,7.11702091 21.5962985,10.8137044 21.5962985,11.9793569 C21.5962985,14.5430916 20.7914197,16.8568767 19.708916,16.8568767 C18.4059455,16.8568767 17.7445451,14.4204528 17.7445451,11.9011017" id="Fill-6" fill="#333333"></path>
                            <polygon id="Fill-8" fill="#333333" points="42.4253959 5.26272242 40.4948532 5.26272242 33.8108595 5.26272242 33.4994064 5.26272242 32.0086309 5.26272242 31.020613 13.3732343 30.9809523 13.3732343 29.8762852 5.26272242 27.6097932 5.26272242 26.4094739 13.3732343 26.3698132 13.3732343 25.478614 5.26272242 23.1922916 5.26272242 25.0330144 19.07769 27.241182 19.07769 28.4823285 10.3282884 28.5208227 10.3282884 29.7211419 19.07769 32.0086309 19.07769 33.5320682 7.39780534 35.6702463 7.39780534 35.6702463 19.07769 38.1887004 19.07769 38.1887004 7.39780534 40.4948532 7.39780534 40.4948532 19.07769 43.0144739 19.07769 43.0144739 5.26272242"></polygon>
                            <polygon id="Fill-10" fill="#333333" points="44.251421 5.26272242 47.6050827 5.26272242 48.7284136 12.3454045 48.7669078 12.3454045 49.9485632 5.26272242 53.2229036 5.26272242 53.2229036 19.07769 50.9762418 19.07769 50.9762418 8.950062 50.9354146 8.950062 49.2323377 19.07769 47.8360479 19.07769 46.1516349 8.950062 46.1131407 8.950062 46.1131407 19.07769 44.251421 19.07769"></polygon>
                            <polygon id="Fill-12" fill="#333333" points="54.4616004 5.26272242 60.1587427 5.26272242 60.1587427 7.39780534 56.9800546 7.39780534 56.9800546 10.9286345 59.3247016 10.9286345 59.3247016 13.1793482 56.9800546 13.1793482 56.9800546 16.9437751 60.2940556 16.9437751 60.2940556 19.07769 54.4616004 19.07769"></polygon>
                            <g id="Group-16" transform="translate(61.492097, 15.784897)" fill="#333333">
                                <path d="M1.14479431,2.13928767 L1.14479431,1.7410036 L1.41075427,1.7410036 C1.54606723,1.7410036 1.69071212,1.77020332 1.69071212,1.93021774 C1.69071212,2.12760779 1.54256776,2.13928767 1.37809252,2.13928767 L1.14479431,2.13928767 Z M1.14479431,2.30514203 L1.36876059,2.30514203 L1.70704299,2.86227253 L1.92634331,2.86227253 L1.56006512,2.29579813 C1.75020316,2.27243836 1.89368156,2.17199135 1.89368156,1.94072963 C1.89368156,1.68844412 1.74320421,1.57514924 1.43991654,1.57514924 L0.949990306,1.57514924 L0.949990306,2.86227253 L1.14479431,2.86227253 L1.14479431,2.30514203 Z M1.3804255,3.33413987 C1.98816733,3.33413987 2.50725585,2.86227253 2.50725585,2.21637491 C2.50725585,1.57514924 1.98816733,1.1032819 1.3804255,1.1032819 C0.768017703,1.1032819 0.247762698,1.57514924 0.247762698,2.21637491 C0.247762698,2.86227253 0.768017703,3.33413987 1.3804255,3.33413987 L1.3804255,3.33413987 Z M0.472895469,2.21637491 C0.472895469,1.68844412 0.870668915,1.28899207 1.3804255,1.28899207 C1.88551612,1.28899207 2.28328957,1.68844412 2.28328957,2.21637491 C2.28328957,2.7536496 1.88551612,3.1484297 1.3804255,3.1484297 C0.870668915,3.1484297 0.472895469,2.7536496 0.472895469,2.21637491 L0.472895469,2.21637491 Z" id="Fill-14"></path>
                            </g>
                        </g>
                    </g>
                </g>
            </g>
        </g>
    </g>
</svg>