<?xml version="1.0" encoding="UTF-8"?>
<svg width="82px" height="20px" viewBox="0 0 82 20" version="1.1" xmlns="http://www.w3.org/2000/svg" xmlns:xlink="http://www.w3.org/1999/xlink">
    <!-- Generator: Sketch 48.1 (47250) - http://www.bohemiancoding.com/sketch -->
    <title>Logo - STARZ</title>
    <desc>Created with Sketch.</desc>
    <defs></defs>
    <g id="Home" stroke="none" stroke-width="1" fill="none" fill-rule="evenodd" transform="translate(-101.000000, -896.000000)">
        <g id="ValueBuild" transform="translate(29.000000, 891.000000)">
            <g id="Premium">
                <g id="Logos" transform="translate(4.000000, 0.497491)">
                    <g id="Assets/Logos/STARZ" transform="translate(68.000000, 4.974906)">
                        <g id="logo-starz" transform="translate(0.443232, 0.251712)">
                            <path d="M80.5189043,17.3130082 C80.608557,17.3130082 80.6664341,17.2585151 80.6664341,17.1671589 C80.6664341,17.078474 80.608557,17.028789 80.5189043,17.028789 L80.3736441,17.028789 L80.3736441,17.3130082 L80.5189043,17.3130082 Z M80.2022825,16.9059123 L80.5529496,16.9059123 C80.7243112,16.9059123 80.8400654,17.0079534 80.8400654,17.1671589 C80.8400654,17.2991178 80.748143,17.3765836 80.6738106,17.3947479 L80.6738106,17.3995562 C80.6738106,17.3995562 80.6834568,17.4086384 80.7050188,17.4471041 L80.8786501,17.7633781 L80.6902659,17.7633781 L80.5211739,17.4310767 L80.3736441,17.4310767 L80.3736441,17.7633781 L80.2022825,17.7633781 L80.2022825,16.9059123 Z M80.4973422,18.0139397 C80.8860266,18.0139397 81.1856257,17.7179671 81.1856257,17.3381178 C81.1856257,16.9582685 80.8860266,16.6622959 80.4973422,16.6622959 C80.1126297,16.6622959 79.8158677,16.9582685 79.8158677,17.3381178 C79.8158677,17.7179671 80.1126297,18.0139397 80.4973422,18.0139397 L80.4973422,18.0139397 Z M80.4973422,16.5073644 C80.9779491,16.5073644 81.3620941,16.8759945 81.3620941,17.3381178 C81.3620941,17.7997068 80.9779491,18.168337 80.4973422,18.168337 C80.0212747,18.168337 79.6393993,17.7997068 79.6393993,17.3381178 C79.6393993,16.8759945 80.0212747,16.5073644 80.4973422,16.5073644 L80.4973422,16.5073644 Z" id="Fill-1" fill="#5A5A5A"></path>
                            <path d="M34.1611635,12.0858329 L36.5046186,7.7146274 L38.8475062,12.0858329 L34.1611635,12.0858329 Z M30.9166414,18.1383123 L32.4044233,15.3554219 L40.6008419,15.3554219 L42.0931632,18.1383123 L46.1105148,18.1383123 L36.5046186,0.221819178 L26.9514926,18.1383123 L30.9166414,18.1383123 Z" id="Fill-3" fill="#333333"></path>
                            <polygon id="Fill-5" fill="#333333" points="30.3391187 0.303505479 15.264404 0.303505479 15.264404 3.57416301 20.8773478 3.57416301 20.8773478 18.1382589 24.7267423 18.1382589 24.7267423 3.57416301 30.3391187 3.57416301"></polygon>
                            <path d="M53.654511,8.14170411 L50.8525785,8.14170411 L50.8525785,3.57389589 L53.654511,3.57389589 C55.7210639,3.57389589 56.8587461,4.3597726 56.8587461,5.84925205 C56.8587461,7.32644384 55.6609171,8.14170411 53.654511,8.14170411 M60.7353769,5.7568274 C60.7353769,4.18721096 60.1316393,2.8387726 58.9894177,1.85736164 C57.8069091,0.840690411 56.1290407,0.303772603 54.1373875,0.303772603 L47.0031839,0.303772603 L47.0031839,18.138526 L50.8525785,18.138526 L50.8525785,11.6351425 L53.595499,11.6351425 L57.5748333,18.138526 L61.9893807,18.138526 L57.4885851,10.7595123 C60.320591,9.51044384 60.7353769,7.07801918 60.7353769,5.7568274" id="Fill-7" fill="#333333"></path>
                            <polygon id="Fill-9" fill="#333333" points="79.3021801 0.303505479 63.6509641 0.303505479 63.6509641 3.57362877 72.6003524 3.57362877 62.8809717 18.1382589 79.1030148 18.1382589 79.1030148 14.8676014 69.5827994 14.8676014"></polygon>
                            <path d="M8.47564725,7.57796712 C5.36900884,6.88451507 4.26650684,6.41010411 4.26650684,5.06273425 C4.26650684,3.93974795 5.36957626,3.22439178 7.01112967,3.22439178 C9.51913731,3.22439178 11.7655632,4.85491233 12.371003,5.33893973 L13.9796459,2.26755616 C11.9817511,0.762049315 9.69163376,0.00021369863 7.06389997,0.00021369863 C3.18272978,0.00021369863 0.471584875,2.18902192 0.471584875,5.31062466 C0.471584875,8.72285753 2.8082309,9.89606301 6.84487487,10.8138986 C10.2199041,11.5474192 10.814563,12.1794329 10.814563,13.2302959 C10.814563,14.4750904 9.63262182,15.2171589 7.80438639,15.2171589 C5.54717951,15.2171589 3.70135398,14.4056384 1.58032852,12.5448575 L5.67422535e-05,15.7305699 C2.19995394,17.5090767 4.88102545,18.441337 7.72608208,18.441337 C11.9074188,18.441337 14.6094849,16.3209123 14.6094849,12.9316521 C14.6094849,10.1418164 12.8323175,8.57593973 8.47564725,7.57796712" id="Fill-11" fill="#333333"></path>
                        </g>
                    </g>
                </g>
            </g>
        </g>
    </g>
</svg>